<svg width="140" height="140" viewBox="0 0 140 140" fill="none" xmlns="http://www.w3.org/2000/svg">
<rect x="0.5" y="0.5" width="139" height="139" rx="69.5" stroke="black"/>
<rect x="1" y="1" width="138" height="138" rx="69" fill="black"/>
<path d="M53.0312 61.9922L55.0068 55.0469H55.9639L55.4102 57.7471L53.2842 65H52.334L53.0312 61.9922ZM50.9873 55.0469L52.5596 61.8555L53.0312 65H52.0879L49.6748 55.0469H50.9873ZM58.5205 61.8486L60.0586 55.0469H61.3779L58.9717 65H58.0283L58.5205 61.8486ZM56.1074 55.0469L58.0283 61.9922L58.7256 65H57.7754L55.7246 57.7471L55.1641 55.0469H56.1074ZM71.5039 59.709V60.3379C71.5039 61.0853 71.4105 61.7552 71.2236 62.3477C71.0368 62.9401 70.7679 63.4437 70.417 63.8584C70.0661 64.2731 69.6445 64.5898 69.1523 64.8086C68.6647 65.0273 68.1178 65.1367 67.5117 65.1367C66.9238 65.1367 66.3838 65.0273 65.8916 64.8086C65.404 64.5898 64.9801 64.2731 64.6201 63.8584C64.2646 63.4437 63.9889 62.9401 63.793 62.3477C63.597 61.7552 63.499 61.0853 63.499 60.3379V59.709C63.499 58.9616 63.5947 58.2939 63.7861 57.7061C63.9821 57.1136 64.2578 56.61 64.6133 56.1953C64.9688 55.776 65.3903 55.457 65.8779 55.2383C66.3701 55.0195 66.9102 54.9102 67.498 54.9102C68.1042 54.9102 68.651 55.0195 69.1387 55.2383C69.6309 55.457 70.0524 55.776 70.4033 56.1953C70.7588 56.61 71.0299 57.1136 71.2168 57.7061C71.4082 58.2939 71.5039 58.9616 71.5039 59.709ZM70.1982 60.3379V59.6953C70.1982 59.1029 70.1367 58.5788 70.0137 58.123C69.8952 57.6673 69.7197 57.2845 69.4873 56.9746C69.2549 56.6647 68.9701 56.43 68.6328 56.2705C68.3001 56.111 67.9219 56.0312 67.498 56.0312C67.0879 56.0312 66.7165 56.111 66.3838 56.2705C66.0557 56.43 65.7731 56.6647 65.5361 56.9746C65.3037 57.2845 65.1237 57.6673 64.9961 58.123C64.8685 58.5788 64.8047 59.1029 64.8047 59.6953V60.3379C64.8047 60.9349 64.8685 61.4635 64.9961 61.9238C65.1237 62.3796 65.306 62.7646 65.543 63.0791C65.7845 63.389 66.0693 63.6237 66.3975 63.7832C66.7301 63.9427 67.1016 64.0225 67.5117 64.0225C67.9401 64.0225 68.3206 63.9427 68.6533 63.7832C68.986 63.6237 69.2663 63.389 69.4941 63.0791C69.7266 62.7646 69.902 62.3796 70.0205 61.9238C70.139 61.4635 70.1982 60.9349 70.1982 60.3379ZM74.4795 55.0469H77.7744C78.5218 55.0469 79.153 55.1608 79.668 55.3887C80.1875 55.6165 80.5817 55.9538 80.8506 56.4004C81.124 56.8424 81.2607 57.387 81.2607 58.0342C81.2607 58.4899 81.1673 58.9069 80.9805 59.2852C80.7982 59.6589 80.5339 59.9779 80.1875 60.2422C79.8457 60.502 79.4355 60.6956 78.957 60.8232L78.5879 60.9668H75.4912L75.4775 59.8936H77.8154C78.2894 59.8936 78.6836 59.8115 78.998 59.6475C79.3125 59.4788 79.5495 59.2533 79.709 58.9707C79.8685 58.6882 79.9482 58.376 79.9482 58.0342C79.9482 57.6514 79.873 57.3164 79.7227 57.0293C79.5723 56.7422 79.3353 56.5212 79.0117 56.3662C78.6927 56.2067 78.2803 56.127 77.7744 56.127H75.7988V65H74.4795V55.0469ZM80.2969 65L77.877 60.4883L79.251 60.4814L81.7051 64.918V65H80.2969ZM85.4258 55.0469V65H84.1064V55.0469H85.4258ZM91.4346 55.0469L87.2988 59.6885L84.9746 62.1016L84.7559 60.6934L86.5059 58.7656L89.8486 55.0469H91.4346ZM90.1631 65L86.4785 60.1465L87.2646 59.1006L91.7354 65H90.1631Z" fill="white"/>
<path d="M43.1494 81.9922L45.125 75.0469H46.082L45.5283 77.7471L43.4023 85H42.4521L43.1494 81.9922ZM41.1055 75.0469L42.6777 81.8555L43.1494 85H42.2061L39.793 75.0469H41.1055ZM48.6387 81.8486L50.1768 75.0469H51.4961L49.0898 85H48.1465L48.6387 81.8486ZM46.2256 75.0469L48.1465 81.9922L48.8438 85H47.8936L45.8428 77.7471L45.2822 75.0469H46.2256ZM55.374 75.0469V85H54.0547V75.0469H55.374ZM62.2461 75.0469V85H60.9473V75.0469H62.2461ZM65.4453 75.0469V76.127H57.7549V75.0469H65.4453ZM74.4229 79.3262V80.3994H69.0361V79.3262H74.4229ZM69.2412 75.0469V85H67.9219V75.0469H69.2412ZM75.5713 75.0469V85H74.2588V75.0469H75.5713ZM89.083 75.0469H90.3955V81.7803C90.3955 82.5277 90.2292 83.1497 89.8965 83.6465C89.5638 84.1432 89.1217 84.5169 88.5703 84.7676C88.0234 85.0137 87.4287 85.1367 86.7861 85.1367C86.1117 85.1367 85.501 85.0137 84.9541 84.7676C84.4118 84.5169 83.9811 84.1432 83.6621 83.6465C83.3477 83.1497 83.1904 82.5277 83.1904 81.7803V75.0469H84.4961V81.7803C84.4961 82.2998 84.5918 82.7282 84.7832 83.0654C84.9746 83.4027 85.2412 83.6533 85.583 83.8174C85.9294 83.9814 86.3304 84.0635 86.7861 84.0635C87.2464 84.0635 87.6475 83.9814 87.9893 83.8174C88.3356 83.6533 88.6045 83.4027 88.7959 83.0654C88.9873 82.7282 89.083 82.2998 89.083 81.7803V75.0469ZM98.7715 82.4844C98.7715 82.252 98.735 82.0469 98.6621 81.8691C98.5938 81.6868 98.4707 81.5228 98.293 81.377C98.1198 81.2311 97.8783 81.0921 97.5684 80.96C97.263 80.8278 96.8757 80.6934 96.4062 80.5566C95.9141 80.4108 95.4697 80.249 95.0732 80.0713C94.6768 79.889 94.3372 79.6816 94.0547 79.4492C93.7721 79.2168 93.5557 78.9502 93.4053 78.6494C93.2549 78.3486 93.1797 78.0046 93.1797 77.6172C93.1797 77.2298 93.2594 76.8721 93.4189 76.5439C93.5785 76.2158 93.8063 75.931 94.1025 75.6895C94.4033 75.4434 94.7611 75.252 95.1758 75.1152C95.5905 74.9785 96.0531 74.9102 96.5635 74.9102C97.3109 74.9102 97.9443 75.0537 98.4639 75.3408C98.988 75.6234 99.3867 75.9948 99.6602 76.4551C99.9336 76.9108 100.07 77.3984 100.07 77.918H98.7578C98.7578 77.5443 98.6781 77.2139 98.5186 76.9268C98.359 76.6351 98.1175 76.4072 97.7939 76.2432C97.4704 76.0745 97.0602 75.9902 96.5635 75.9902C96.0941 75.9902 95.7067 76.0609 95.4014 76.2021C95.096 76.3434 94.8682 76.5348 94.7178 76.7764C94.5719 77.0179 94.499 77.2936 94.499 77.6035C94.499 77.8132 94.5423 78.0046 94.6289 78.1777C94.7201 78.3464 94.859 78.5036 95.0459 78.6494C95.2373 78.7952 95.4788 78.9297 95.7705 79.0527C96.0667 79.1758 96.4199 79.2943 96.8301 79.4082C97.3952 79.5677 97.8828 79.7454 98.293 79.9414C98.7031 80.1374 99.0404 80.3584 99.3047 80.6045C99.5736 80.846 99.7718 81.1217 99.8994 81.4316C100.032 81.737 100.098 82.0833 100.098 82.4707C100.098 82.8763 100.016 83.2432 99.8516 83.5713C99.6875 83.8994 99.4528 84.1797 99.1475 84.4121C98.8421 84.6445 98.4753 84.8245 98.0469 84.9521C97.623 85.0752 97.1491 85.1367 96.625 85.1367C96.1647 85.1367 95.7113 85.0729 95.2646 84.9453C94.8226 84.8177 94.4193 84.6263 94.0547 84.3711C93.6947 84.1159 93.4053 83.8014 93.1865 83.4277C92.9723 83.0495 92.8652 82.612 92.8652 82.1152H94.1777C94.1777 82.457 94.2438 82.751 94.376 82.9971C94.5081 83.2386 94.6882 83.4391 94.916 83.5986C95.1484 83.7581 95.4105 83.8766 95.7021 83.9541C95.9984 84.027 96.306 84.0635 96.625 84.0635C97.0853 84.0635 97.4749 83.9997 97.7939 83.8721C98.113 83.7445 98.3545 83.5622 98.5186 83.3252C98.6872 83.0882 98.7715 82.8079 98.7715 82.4844Z" fill="white"/>
</svg>
